<svg width="39" height="57" viewBox="0 0 39 57" fill="none" xmlns="http://www.w3.org/2000/svg">
<rect width="39" height="57" fill="white" fill-opacity="0.1"/>
<path d="M37.0987 45.7193C33.9728 41.1273 23.4898 30.0337 18 27.5L27.5 19.5L38 6C28.5 27.5 33.5 27.5 32.5 27.5C31.7359 27.5 35.3507 40.6369 37.0987 45.7193C37.6739 46.5643 38 47.1892 38 47.5C38 48.0897 37.6383 47.2883 37.0987 45.7193Z" fill="#D6C5A9"/>
<path d="M29.5 23L29.3158 23.1433M29.3158 23.1433L25 26.5C26.5 27.8333 29.7158 30.1 29.3158 30.5C28.9158 30.9 29.0438 25.9289 29.3158 23.1433ZM38 6C28.5 27.5 33.5 27.5 32.5 27.5C31.5 27.5 38 50 38 47.5C38 45.5 24.5 30.5 18 27.5L27.5 19.5L38 6Z" stroke="#D5C6AB"/>
<path d="M22 27.0199L30 23C29.7037 25.6799 28.9333 30.8101 28.2222 29.8913C27.5111 28.9724 23.7778 27.5942 22 27.0199Z" fill="#E7E0D8" stroke="#D5C6AB"/>
</svg>
