<svg width="39" height="57" viewBox="0 0 39 57" fill="none" xmlns="http://www.w3.org/2000/svg">
<rect width="39" height="57" transform="matrix(-1 0 0 -1 39 57)" fill="white" fill-opacity="0.1"/>
<path d="M1.90131 11.2807C5.02721 15.8727 15.5102 26.9663 21 29.5L11.5 37.5L1 51C10.5 29.5 5.5 29.5 6.5 29.5C7.26411 29.5 3.64926 16.3631 1.90131 11.2807C1.32609 10.4357 1 9.81084 1 9.5C1 8.91027 1.36169 9.71167 1.90131 11.2807Z" fill="#D6C5A9"/>
<path d="M9.5 34L9.68423 33.8567M9.68423 33.8567L14 30.5C12.5 29.1667 9.28423 26.9 9.68423 26.5C10.0842 26.1 9.95616 31.0711 9.68423 33.8567ZM1 51C10.5 29.5 5.5 29.5 6.5 29.5C7.5 29.5 1 7 1 9.5C1 11.5 14.5 26.5 21 29.5L11.5 37.5L1 51Z" stroke="#D5C6AB"/>
<path d="M17 29.9801L9 34C9.2963 31.3201 10.0667 26.1899 10.7778 27.1087C11.4889 28.0276 15.2222 29.4058 17 29.9801Z" fill="#E7E0D8" stroke="#D5C6AB"/>
</svg>
