<svg width="100" height="100" viewBox="0 0 100 100" fill="none" xmlns="http://www.w3.org/2000/svg">
<g clip-path="url(#clip0_3_56)">
<rect width="100" height="100" rx="10" fill="#CFBD97"/>
<path d="M26.4062 42.4062V79.3906C26.4062 81.9531 25.7969 83.8906 24.5781 85.2031C23.3594 86.5156 21.8125 87.1719 19.9375 87.1719C18.0625 87.1719 16.5312 86.5 15.3438 85.1562C14.1875 83.8125 13.6094 81.8906 13.6094 79.3906V42.7812C13.6094 40.25 14.1875 38.3438 15.3438 37.0625C16.5312 35.7812 18.0625 35.1406 19.9375 35.1406C21.8125 35.1406 23.3594 35.7812 24.5781 37.0625C25.7969 38.3438 26.4062 40.125 26.4062 42.4062ZM20.0781 29.1875C18.2969 29.1875 16.7656 28.6406 15.4844 27.5469C14.2344 26.4531 13.6094 24.9063 13.6094 22.9062C13.6094 21.0937 14.25 19.6094 15.5312 18.4531C16.8438 17.2656 18.3594 16.6719 20.0781 16.6719C21.7344 16.6719 23.2031 17.2031 24.4844 18.2656C25.7656 19.3281 26.4062 20.875 26.4062 22.9062C26.4062 24.875 25.7812 26.4219 24.5312 27.5469C23.2812 28.6406 21.7969 29.1875 20.0781 29.1875ZM51.2969 42.2188V43.7656C53.5469 40.7969 56 38.625 58.6562 37.25C61.3438 35.8438 64.4219 35.1406 67.8906 35.1406C71.2656 35.1406 74.2812 35.875 76.9375 37.3438C79.5938 38.8125 81.5781 40.8906 82.8906 43.5781C83.7344 45.1406 84.2812 46.8281 84.5312 48.6406C84.7812 50.4531 84.9062 52.7656 84.9062 55.5781V79.3906C84.9062 81.9531 84.3125 83.8906 83.125 85.2031C81.9688 86.5156 80.4531 87.1719 78.5781 87.1719C76.6719 87.1719 75.125 86.5 73.9375 85.1562C72.75 83.8125 72.1562 81.8906 72.1562 79.3906V58.0625C72.1562 53.8438 71.5625 50.625 70.375 48.4062C69.2188 46.1562 66.8906 45.0312 63.3906 45.0312C61.1094 45.0312 59.0312 45.7188 57.1562 47.0938C55.2812 48.4375 53.9062 50.2969 53.0312 52.6719C52.4062 54.5781 52.0938 58.1406 52.0938 63.3594V79.3906C52.0938 81.9844 51.4844 83.9375 50.2656 85.25C49.0781 86.5312 47.5312 87.1719 45.625 87.1719C43.7812 87.1719 42.2656 86.5 41.0781 85.1562C39.8906 83.8125 39.2969 81.8906 39.2969 79.3906V42.4062C39.2969 39.9688 39.8281 38.1562 40.8906 36.9688C41.9531 35.75 43.4062 35.1406 45.25 35.1406C46.375 35.1406 47.3906 35.4062 48.2969 35.9375C49.2031 36.4688 49.9219 37.2656 50.4531 38.3281C51.0156 39.3906 51.2969 40.6875 51.2969 42.2188Z" fill="#F0ECE3"/>
</g>
<defs>
<clipPath id="clip0_3_56">
<rect width="100" height="100" rx="10" fill="white"/>
</clipPath>
</defs>
</svg>
