<svg width="112" height="163" viewBox="0 0 112 163" fill="none" xmlns="http://www.w3.org/2000/svg">
<g clip-path="url(#clip0_3_75)">
<rect width="112" height="163" rx="10" fill="#DFDBCF"/>
<path d="M0 10C0 4.47715 4.47715 0 10 0H102C107.523 0 112 4.47715 112 10V92C112 111.882 95.8822 128 76 128H10C4.47715 128 0 123.523 0 118V10Z" fill="#919190"/>
<path d="M61.9844 90.1094H49.8906V72.25H31.9375V59.9688H49.8906V42.0156H61.9844V59.9688H80.0312V72.25H61.9844V90.1094Z" fill="#C2C1C0"/>
<path d="M29.3687 147.511V147.881C29.9077 147.17 30.4954 146.65 31.1318 146.32C31.7757 145.983 32.5132 145.815 33.3442 145.815C34.1528 145.815 34.8753 145.991 35.5117 146.343C36.1481 146.695 36.6235 147.193 36.938 147.836C37.1401 148.211 37.2712 148.615 37.3311 149.049C37.391 149.484 37.4209 150.038 37.4209 150.711V156.417C37.4209 157.03 37.2786 157.495 36.9941 157.809C36.7171 158.124 36.354 158.281 35.9048 158.281C35.4481 158.281 35.0775 158.12 34.793 157.798C34.5085 157.476 34.3662 157.015 34.3662 156.417V151.307C34.3662 150.296 34.224 149.525 33.9395 148.993C33.6624 148.454 33.1047 148.185 32.2661 148.185C31.7196 148.185 31.2217 148.349 30.7725 148.679C30.3232 149.001 29.9938 149.446 29.7842 150.015C29.6344 150.472 29.5596 151.325 29.5596 152.576V156.417C29.5596 157.038 29.4136 157.506 29.1216 157.82C28.8371 158.127 28.4665 158.281 28.0098 158.281C27.568 158.281 27.2049 158.12 26.9204 157.798C26.6359 157.476 26.4937 157.015 26.4937 156.417V147.556C26.4937 146.972 26.6209 146.537 26.8755 146.253C27.13 145.961 27.4782 145.815 27.9199 145.815C28.1895 145.815 28.4328 145.879 28.6499 146.006C28.867 146.133 29.0392 146.324 29.1665 146.579C29.3013 146.833 29.3687 147.144 29.3687 147.511ZM48.2358 156.551C47.4946 157.128 46.7759 157.562 46.0796 157.854C45.3908 158.139 44.6159 158.281 43.7549 158.281C42.9688 158.281 42.2762 158.127 41.6772 157.82C41.0858 157.506 40.6291 157.083 40.3071 156.551C39.9852 156.02 39.8242 155.443 39.8242 154.822C39.8242 153.983 40.09 153.268 40.6216 152.677C41.1532 152.085 41.8831 151.688 42.8115 151.486C43.0062 151.441 43.4891 151.34 44.2603 151.183C45.0314 151.026 45.6903 150.884 46.2368 150.756C46.7909 150.622 47.3898 150.461 48.0337 150.273C47.9963 149.465 47.8315 148.873 47.5396 148.499C47.255 148.117 46.6598 147.926 45.7539 147.926C44.9753 147.926 44.3875 148.035 43.9907 148.252C43.6014 148.469 43.2645 148.795 42.98 149.229C42.703 149.663 42.5046 149.951 42.3848 150.094C42.2725 150.229 42.0254 150.296 41.6436 150.296C41.2992 150.296 40.9997 150.187 40.7451 149.97C40.498 149.746 40.3745 149.461 40.3745 149.117C40.3745 148.578 40.5654 148.054 40.9473 147.544C41.3291 147.035 41.9243 146.616 42.7329 146.287C43.5415 145.957 44.5485 145.792 45.7539 145.792C47.1016 145.792 48.161 145.953 48.9321 146.275C49.7033 146.59 50.2461 147.091 50.5605 147.78C50.8825 148.469 51.0435 149.382 51.0435 150.521C51.0435 151.239 51.0397 151.849 51.0322 152.351C51.0322 152.853 51.0285 153.41 51.021 154.024C51.021 154.601 51.1146 155.204 51.3018 155.833C51.4964 156.454 51.5938 156.854 51.5938 157.034C51.5938 157.349 51.444 157.637 51.1445 157.899C50.8525 158.153 50.5194 158.281 50.145 158.281C49.8306 158.281 49.5199 158.135 49.2129 157.843C48.9059 157.543 48.5802 157.113 48.2358 156.551ZM48.0337 152.115C47.5845 152.28 46.9294 152.456 46.0684 152.643C45.2148 152.823 44.6234 152.958 44.2939 153.047C43.9645 153.13 43.6501 153.298 43.3506 153.553C43.0511 153.8 42.9014 154.148 42.9014 154.597C42.9014 155.061 43.0773 155.458 43.4292 155.788C43.7811 156.11 44.2415 156.271 44.8105 156.271C45.417 156.271 45.9748 156.139 46.4839 155.877C47.0005 155.608 47.3786 155.264 47.6182 154.844C47.8952 154.38 48.0337 153.616 48.0337 152.553V152.115ZM64.3628 152.272V156.349C64.3628 156.993 64.2168 157.476 63.9248 157.798C63.6328 158.12 63.2472 158.281 62.7681 158.281C62.3039 158.281 61.9258 158.12 61.6338 157.798C61.3493 157.476 61.207 156.993 61.207 156.349V151.464C61.207 150.693 61.1808 150.094 61.1284 149.667C61.076 149.24 60.9338 148.892 60.7017 148.623C60.4696 148.346 60.1027 148.207 59.6011 148.207C58.5978 148.207 57.9352 148.551 57.6133 149.24C57.2988 149.929 57.1416 150.917 57.1416 152.205V156.349C57.1416 156.986 56.9956 157.468 56.7036 157.798C56.4191 158.12 56.041 158.281 55.5693 158.281C55.1051 158.281 54.7233 158.12 54.4238 157.798C54.1318 157.468 53.9858 156.986 53.9858 156.349V147.578C53.9858 147.002 54.1169 146.564 54.3789 146.264C54.6484 145.965 55.0003 145.815 55.4346 145.815C55.8538 145.815 56.202 145.957 56.479 146.242C56.7635 146.519 56.9058 146.904 56.9058 147.398V147.69C57.4373 147.054 58.0063 146.586 58.6128 146.287C59.2192 145.987 59.8931 145.837 60.6343 145.837C61.4054 145.837 62.068 145.991 62.6221 146.298C63.1761 146.605 63.6328 147.069 63.9922 147.69C64.5088 147.062 65.0628 146.597 65.6543 146.298C66.2458 145.991 66.9009 145.837 67.6196 145.837C68.4582 145.837 69.1807 146.002 69.7871 146.332C70.3936 146.661 70.8465 147.133 71.146 147.747C71.408 148.301 71.5391 149.173 71.5391 150.363V156.349C71.5391 156.993 71.3931 157.476 71.1011 157.798C70.8091 158.12 70.4235 158.281 69.9443 158.281C69.4801 158.281 69.0983 158.12 68.7988 157.798C68.5068 157.468 68.3608 156.986 68.3608 156.349V151.194C68.3608 150.535 68.3309 150.008 68.271 149.611C68.2186 149.214 68.0688 148.881 67.8218 148.611C67.5747 148.342 67.2004 148.207 66.6987 148.207C66.2944 148.207 65.9089 148.327 65.542 148.566C65.1826 148.806 64.9019 149.128 64.6997 149.532C64.4751 150.049 64.3628 150.962 64.3628 152.272ZM83.0728 152.8H77.0757C77.0832 153.497 77.2217 154.111 77.4912 154.642C77.7682 155.174 78.1313 155.574 78.5806 155.844C79.0373 156.113 79.5389 156.248 80.0854 156.248C80.4523 156.248 80.7855 156.207 81.085 156.125C81.3919 156.035 81.6877 155.9 81.9722 155.72C82.2567 155.533 82.5187 155.335 82.7583 155.125C82.9979 154.915 83.3086 154.631 83.6904 154.271C83.8477 154.137 84.0723 154.069 84.3643 154.069C84.6787 154.069 84.9333 154.155 85.1279 154.328C85.3226 154.5 85.4199 154.743 85.4199 155.058C85.4199 155.335 85.3114 155.66 85.0942 156.035C84.8771 156.402 84.5477 156.757 84.106 157.102C83.6717 157.438 83.1214 157.719 82.4551 157.944C81.7962 158.168 81.0363 158.281 80.1753 158.281C78.2062 158.281 76.6751 157.719 75.582 156.596C74.4889 155.473 73.9424 153.95 73.9424 152.025C73.9424 151.119 74.0771 150.281 74.3467 149.51C74.6162 148.731 75.0093 148.065 75.5259 147.511C76.0425 146.957 76.6789 146.534 77.4351 146.242C78.1912 145.942 79.0298 145.792 79.9507 145.792C81.1486 145.792 82.1743 146.047 83.0278 146.556C83.8888 147.058 84.5327 147.709 84.9595 148.51C85.3862 149.311 85.5996 150.127 85.5996 150.958C85.5996 151.73 85.3787 152.231 84.937 152.463C84.4953 152.688 83.8739 152.8 83.0728 152.8ZM77.0757 151.06H82.6348C82.5599 150.011 82.2754 149.229 81.7812 148.712C81.2946 148.188 80.6507 147.926 79.8496 147.926C79.0859 147.926 78.457 148.192 77.9629 148.724C77.4762 149.248 77.1805 150.026 77.0757 151.06Z" fill="black"/>
</g>
<rect x="1" y="1" width="110" height="161" rx="9" stroke="#CDC7BF" stroke-width="2"/>
<defs>
<clipPath id="clip0_3_75">
<rect width="112" height="163" rx="10" fill="white"/>
</clipPath>
</defs>
</svg>
